<svg width="96" height="60" viewBox="0 0 96 60" xmlns="http://www.w3.org/2000/svg">
  <rect width="96" height="60" rx="8" fill="#fff"/>
  <!-- stylized U mark, simplified vector representation -->
  <g transform="translate(12,6)">
    <path d="M18 0h12v30a12 12 0 0 1-12 12h0A18 18 0 0 1 0 24V0h12v24a6 6 0 0 0 6 6h0V0z" fill="#1E50A0"/>
    <rect x="36" y="0" width="12" height="12" rx="2" fill="#1E50A0"/>
    <path d="M46 2h6a2 2 0 0 1 2 2v6h-4a4 4 0 0 1-4-4V2z" fill="#F4A300"/>
  </g>
  <g transform="translate(12,44)" fill="#1F2937" font-family="Arial, Helvetica, sans-serif" font-weight="700" font-size="12">
    <text x="18" y="12">UZCARD</text>
  </g>
</svg>
